<svg width="6080" height="3219" viewBox="0 0 6080 3219" fill="none" xmlns="http://www.w3.org/2000/svg">
<rect width="6080" height="3219" fill="#1E1E1E"/>
<rect width="6080" height="3219" fill="url(#paint0_linear_0_1)"/>
<path d="M2218.5 2715V2994C2224.5 3006 2230.5 3012.33 2236.5 3013H2292V3037H2100V3014H2147.5C2153.5 3013.33 2158.5 3010.83 2162.5 3006.5C2166.5 3002.17 2169.17 2997.33 2170.5 2992V2707C2167.17 2699.67 2162 2695 2155 2693C2081.67 2693 2045 2709.33 2045 2742V2759H2023V2669H2369.5V2759H2347.5V2742C2347.5 2709.33 2329.17 2693 2292.5 2693H2233.5C2224.83 2697.67 2219.83 2705 2218.5 2715ZM2592.72 3012C2649.39 3012 2690.39 2996.5 2715.72 2965.5L2725.72 2952L2740.22 2964C2727.22 2981 2718.05 2991.83 2712.72 2996.5C2707.72 3000.83 2702.22 3005.17 2696.22 3009.5C2690.55 3013.83 2684.89 3017.33 2679.22 3020C2673.89 3022.67 2670.05 3024.67 2667.72 3026L2660.22 3029C2636.22 3038 2611.05 3042.5 2584.72 3042.5C2558.39 3042.5 2534.72 3037.67 2513.72 3028C2493.05 3018.33 2475.22 3004.67 2460.22 2987C2445.22 2969.33 2433.05 2947.5 2423.72 2921.5C2414.39 2895.5 2409.72 2870.33 2409.72 2846C2409.72 2784.67 2435.72 2734.17 2487.72 2694.5C2516.39 2673.17 2547.05 2662.5 2579.72 2662.5C2612.39 2662.5 2639.05 2666.5 2659.72 2674.5C2661.39 2675.17 2662.55 2675.5 2663.22 2675.5C2664.22 2675.5 2664.72 2674.83 2664.72 2673.5C2664.72 2672.17 2663.72 2670 2661.72 2667H2686.72L2735.22 2741L2721.22 2752.5L2710.72 2739L2690.72 2720C2675.72 2705.67 2660.39 2697 2644.72 2694C2629.39 2691 2615.05 2689.5 2601.72 2689.5C2588.39 2689.5 2575.55 2691.67 2563.22 2696C2550.89 2700 2538.55 2706.5 2526.22 2715.5C2514.22 2724.5 2503.22 2735 2493.22 2747C2483.22 2759 2475.22 2773.17 2469.22 2789.5C2463.22 2805.83 2460.22 2822.67 2460.22 2840C2460.22 2887.67 2473.05 2928.33 2498.72 2962C2524.72 2995.33 2556.05 3012 2592.72 3012ZM3072.85 2718.85C3073.75 2718.25 3073.3 2715.7 3071.5 2711.2C3069.7 2706.7 3068.5 2702.95 3067.9 2699.95H3090.4L3134.05 2775.55L3121.45 2785.9L3112 2773.75L3094 2756.65C3084.1 2746.75 3074.35 2739.7 3064.75 2735.5C3055.45 2731.3 3041.35 2729.2 3022.45 2729.2C3003.55 2729.2 2987.35 2735.8 2973.85 2749C2960.35 2762.2 2953.6 2775.7 2953.6 2789.5C2953.6 2803.3 2958.1 2813.8 2967.1 2821C2976.1 2828.2 2986.9 2834.5 2999.5 2839.9C3012.4 2845.3 3022 2848.75 3028.3 2850.25C3061.9 2858.35 3086.2 2867.5 3101.2 2877.7C3130 2896.9 3144.4 2921.65 3144.4 2951.95C3144.4 2968.45 3140.05 2983.15 3131.35 2996.05C3122.95 3008.65 3114.55 3017.65 3106.15 3023.05C3085.15 3036.85 3056.95 3043.75 3021.55 3043.75C3000.25 3043.75 2980.75 3038.65 2963.05 3028.45L2956.3 3024.4L2957.2 3032.5C2958.1 3035.5 2959 3038.35 2959.9 3041.05H2937.4L2893.75 2965.45L2906.35 2955.1L2915.8 2967.25L2933.8 2984.35C2955.7 3006.85 2979.85 3018.1 3006.25 3018.1C3007.15 3018.1 3008.05 3018.1 3008.95 3018.1C3036.25 3017.2 3057.85 3009.85 3073.75 2996.05C3089.95 2982.25 3098.05 2967.85 3098.05 2952.85C3098.05 2937.55 3095.05 2926.9 3089.05 2920.9C3076.15 2908 3065.2 2900.2 3056.2 2897.5C3012.1 2884.3 2977.75 2871.7 2953.15 2859.7C2924.35 2845.3 2909.95 2823.4 2909.95 2794V2792.2C2909.95 2777.5 2913.25 2764.15 2919.85 2752.15C2926.75 2740.15 2935.6 2730.85 2946.4 2724.25C2968.3 2711.05 2990.2 2704.45 3012.1 2704.45C3034 2704.45 3054.25 2709.25 3072.85 2718.85ZM3250.47 2835.85C3266.97 2815.75 3288.42 2805.55 3314.82 2805.25H3316.17C3347.37 2805.25 3372.57 2816.5 3391.77 2839C3411.27 2861.2 3421.02 2890.45 3421.02 2926.75C3421.02 2962.75 3411.12 2991.25 3391.32 3012.25C3371.82 3033.25 3346.77 3043.75 3316.17 3043.75H3314.82C3288.72 3043.45 3267.12 3033.55 3250.02 3014.05V3079.75C3252.12 3088.75 3257.52 3093.25 3266.22 3093.25H3287.82V3113.5H3174.87V3093.25L3198.72 3092.8C3204.72 3091.6 3209.37 3087.25 3212.67 3079.75V2853.4H3178.92V2844.4L3232.47 2808.4H3250.02V2808.85L3250.47 2808.4V2835.85ZM3373.32 2924.95C3373.02 2897.65 3367.47 2875.75 3356.67 2859.25C3345.87 2842.75 3330.72 2834.5 3311.22 2834.5C3275.52 2834.5 3255.57 2861.2 3251.37 2914.6V2938.9C3254.07 2988.7 3274.02 3013.75 3311.22 3014.05C3329.22 3014.05 3343.92 3006.25 3355.32 2990.65C3366.72 2975.05 3372.72 2953.15 3373.32 2924.95ZM3551.95 3045.55C3521.65 3045.55 3496 3033.85 3475 3010.45C3454 2987.05 3443.5 2959 3443.5 2926.3C3443.5 2893.6 3454 2865.25 3475 2841.25C3496 2817.25 3521.65 2805.25 3551.95 2805.25C3582.55 2805.25 3608.8 2817.25 3630.7 2841.25C3652.9 2865.25 3664 2893.6 3664 2926.3C3664 2959 3652.9 2987.05 3630.7 3010.45C3608.8 3033.85 3582.55 3045.55 3551.95 3045.55ZM3619.45 2925.85C3619.45 2900.05 3612.25 2877.85 3597.85 2859.25C3583.75 2840.35 3567.55 2830.9 3549.25 2830.9C3530.95 2830.9 3515.65 2840.5 3503.35 2859.7C3491.35 2878.6 3485.35 2901.1 3485.35 2927.2C3485.35 2953 3492.4 2975.05 3506.5 2993.35C3520.9 3011.35 3536.95 3020.35 3554.65 3020.35C3572.65 3020.35 3587.95 3011.05 3600.55 2992.45C3613.15 2973.85 3619.45 2951.65 3619.45 2925.85ZM3848.41 2805.25H3849.31C3857.71 2805.25 3864.76 2805.55 3870.46 2806.15C3865.96 2823.55 3863.71 2835.4 3863.71 2841.7C3857.71 2840.8 3850.66 2840.35 3842.56 2840.35C3818.86 2840.35 3799.21 2850.7 3783.61 2871.4C3768.31 2891.8 3760.66 2912.2 3760.66 2932.6V3003.25C3762.76 3012.25 3768.16 3016.75 3776.86 3016.75H3798.46V3037H3685.51V3016.75L3709.36 3016.3C3715.36 3015.1 3720.01 3010.75 3723.31 3003.25V2856.55H3689.56V2847.55L3743.11 2811.55H3760.66V2869.6C3778.36 2826.7 3807.61 2805.25 3848.41 2805.25ZM4002.97 3041.05C3951.07 3041.05 3925.12 3020.2 3925.12 2978.5V2846.2H3884.17V2824.6H3901.27C3923.47 2823.4 3936.07 2804.8 3939.07 2768.8L3963.37 2740.9V2824.6H4016.47V2846.2H3963.37V2962.75C3963.37 2985.85 3966.82 3000.85 3973.72 3007.75C3980.92 3014.35 3991.12 3017.65 4004.32 3017.65C4017.52 3017.65 4027.57 3015.1 4034.47 3010V3038.35C4029.97 3040.15 4023.97 3041.05 4016.47 3041.05H4002.97ZM4159.63 3016.3C4194.43 3016.3 4211.83 3005.35 4211.83 2983.45C4211.83 2972.35 4209.28 2965.3 4204.18 2962.3C4190.68 2954.2 4181.23 2950.15 4175.83 2950.15C4175.53 2950.15 4165.93 2947.75 4147.03 2942.95C4128.13 2937.85 4112.98 2932.75 4101.58 2927.65C4090.18 2922.25 4081.03 2915.05 4074.13 2906.05C4067.53 2896.75 4064.23 2886.25 4064.23 2874.55C4064.23 2862.55 4067.38 2852.2 4073.68 2843.5C4079.98 2834.5 4087.93 2827.45 4097.53 2822.35C4116.73 2812.75 4132.78 2807.95 4145.68 2807.95C4158.58 2807.95 4171.63 2810.8 4184.83 2816.5C4184.53 2815.3 4184.38 2813.35 4184.38 2810.65C4184.38 2807.65 4183.48 2804.8 4181.68 2802.1H4204.18L4242.88 2870.05L4230.28 2880.4L4220.83 2868.25C4192.63 2845.75 4170.58 2834.5 4154.68 2834.5C4139.08 2834.5 4126.33 2837.65 4116.43 2843.95C4106.53 2849.95 4101.58 2855.8 4101.58 2861.5C4101.58 2866.9 4104.88 2873.95 4111.48 2882.65C4118.38 2891.35 4134.13 2898.55 4158.73 2904.25C4183.63 2909.95 4201.63 2915.5 4212.73 2920.9C4236.43 2932.9 4248.28 2951.2 4248.28 2975.8V2977.15C4248.28 2995.75 4239.73 3011.05 4222.63 3023.05C4205.83 3035.05 4183.93 3041.05 4156.93 3041.05C4143.43 3041.05 4128.43 3037.15 4111.93 3029.35L4112.38 3030.25L4113.28 3031.6H4112.83C4113.13 3032.5 4113.28 3034.45 4113.28 3037.45C4113.28 3040.75 4114.18 3043.75 4115.98 3046.45H4093.48L4054.78 2978.5L4067.38 2968.15L4076.83 2980.3L4106.98 3001.45C4127.08 3011.35 4144.63 3016.3 4159.63 3016.3Z" fill="white"/>
<ellipse cx="4128.5" cy="2375" rx="107.5" ry="104" fill="#1AFDF9"/>
<path d="M276 2109H807.5L1008.5 1803H3167L3545.5 2375H4053" stroke="#1AFDF9" stroke-width="80"/>
<ellipse cx="178.5" cy="2105" rx="107.5" ry="104" fill="#1AFDF9"/>
<ellipse cx="5794.5" cy="2245" rx="107.5" ry="104" fill="#1AFDF9"/>
<ellipse cx="1813.5" cy="1981" rx="107.5" ry="104" fill="#1AFDF9"/>
<path d="M1909 1983H2447.5L2642 1676H4817.5L5191.5 2244.5H5699.5" stroke="#1AFDF9" stroke-width="80"/>
<ellipse cx="4644.5" cy="791" rx="107.5" ry="104" fill="#1AFDF9"/>
<ellipse cx="748.5" cy="1061" rx="107.5" ry="104" fill="#1AFDF9"/>
<path d="M849 1059.5H1363L1577.5 1359H3725.5L4116.5 791H4600" stroke="#1AFDF9" stroke-width="80"/>
<path d="M2070 795H2603.5L2818.5 1105H4977.5L5356 537H5829" stroke="#1AFDF9" stroke-width="80"/>
<ellipse cx="5902.5" cy="537" rx="107.5" ry="104" fill="#1AFDF9"/>
<ellipse cx="1995.5" cy="791" rx="107.5" ry="104" fill="#1AFDF9"/>
<defs>
<linearGradient id="paint0_linear_0_1" x1="-1.33024e-09" y1="1385" x2="6023" y2="1393.5" gradientUnits="userSpaceOnUse">
<stop stop-color="#0F1010"/>
<stop offset="0.485" stop-color="#243036"/>
<stop offset="1" stop-color="#191A1B"/>
</linearGradient>
</defs>
</svg>
